# xmcd
#
# Track frame offsets:
#	150
#	15007
#	28311
#	44232
#	60987
#	78592
#	94994
#	115341
#	128468
#	143180
#	157578
#	175233
#	193433
#	207387
#	226187
#	243342
#	257348
#	275530
#	291974
#
# Disc length: 4129 seconds
#
# Revision: 0
# Processed by: cddbd v1.5.2PL0 Copyright (c) Steve Scherf et al.
# Submitted via: EasyCDDAExtractor 10.0.1.1
#
DISCID=08101f13
DTITLE=Various Artist - Marko Polo Fest 2
DYEAR=1900
DGENRE=Country
TTITLE0=Saša Lendero i Miha Hercog - ti si
TTITLE1=Alen Vitasovic - Ja dat cu sve
TTITLE2=Bojana - Ljubav ne vrijedi niti groš
TTITLE3=Danijel Beni - Gradovi od sna
TTITLE4=Ivan Šegedin - Da se opet rodin
TTITLE5=Silvija - Ljubi me
TTITLE6=Vladimir Kociš Zec - Vrati se svadalice
TTITLE7=Lea Mijatovic - Želim da znaš
TTITLE8=Goran Mikulcic - Krv, srebro i zlato
TTITLE9=Klapa Ragusa - DAlmatinac
TTITLE10=Lea Grbin - Robinja
TTITLE11=Bruno Filipovic - Ostaci noci
TTITLE12=Nenad Vetma - Pjesmo moja
TTITLE13=Mješovita klapa Mareta - Vedra mala nasmijana
TTITLE14=Tin Ujevic - Lud i mlad
TTITLE15=Katarina - Bogu hvala što te imam
TTITLE16=Davor Juraga - Ne daj jadu da me mjenja
TTITLE17=Dijana Zovko - Što bi bilo
TTITLE18=Martin Filipovic - Decko ludi
EXTD=
EXTT0=
EXTT1=
EXTT2=
EXTT3=
EXTT4=
EXTT5=
EXTT6=
EXTT7=
EXTT8=
EXTT9=
EXTT10=
EXTT11=
EXTT12=
EXTT13=
EXTT14=
EXTT15=
EXTT16=
EXTT17=
EXTT18=
PLAYORDER=
